# xmcd
#
# Track frame offsets: 
#        150
#        15019
#        22202
#        35885
#        48628
#        61731
#        72856
#        90070
#        97577
#        111515
#        123194
#        134010
#
# Disc length: 1969 seconds
#
# Revision: 0
# Processed by: cddbd v1.5.2PL0 Copyright (c) Steve Scherf et al.
# Submitted via: ExactAudioCopy v1.0b4
#
DISCID=9607af0c
DTITLE=J.B. Lenoir - Down In Mississippi
DYEAR=1900
DGENRE=Blues
TTITLE0=Down In Mississippi
TTITLE1=Slow Down
TTITLE2=If I Get Lucky
TTITLE3=Shot On Meredith
TTITLE4=Round And Round
TTITLE5=Voodoo Music
TTITLE6=Born Dead
TTITLE7=Leavin´ Here
TTITLE8=Vietnam Blues
TTITLE9=How Much More
TTITLE10=Tax Payin´ Blues
TTITLE11=Feelin´ Good
EXTD=
EXTT0=
EXTT1=
EXTT2=
EXTT3=
EXTT4=
EXTT5=
EXTT6=
EXTT7=
EXTT8=
EXTT9=
EXTT10=
EXTT11=
PLAYORDER=
